<svg width="41" height="40" viewBox="0 0 41 40" fill="none" xmlns="http://www.w3.org/2000/svg">
<g clip-path="url(#clip0_31_33)">
<path d="M17.1896 0.230517L14.0832 0L11.4946 1.73936L10.6526 4.57367L11.9652 7.75377L13.9786 9.18402L13.487 9.72888L13.3511 10.5881L15.0716 12.406L15.3592 10.63L16.1175 9.78651L18.3296 9.7446L22.9735 14.6536L25.2065 14.1139L19.1664 7.73281L15.4743 7.80616L13.5864 6.45972L12.7601 4.46365L13.1994 2.99149L14.6218 2.03798L16.3633 2.16896L17.1321 2.86575L17.9479 4.84086L19.2239 2.71906L18.8003 1.69221L17.1896 0.230517Z" fill="#80FF7E"/>
<path d="M1.75191 12.9876L0 15.5704L0.209184 18.6824L2.23827 20.8304L5.64273 21.2809L7.89145 20.2541L8.1111 20.9509L8.78571 21.4957L11.2227 20.9142L9.8264 19.7773L9.48125 18.6981L10.5429 16.7597L17.1112 15.1827L17.7649 12.9718L9.225 15.0255L7.44694 18.2633L5.33941 19.2272L3.20051 18.9443L2.14413 17.8337L2.02908 16.1205L3.01224 14.6745L4.00064 14.3549L6.11862 14.6326L4.92628 12.4689L3.8176 12.3222L1.75191 12.9876Z" fill="#80FF7E"/>
<path d="M5.06226 32.7597L6.41672 35.5678L9.21455 36.9456L12.0856 36.2593L14.1774 33.5298L14.4128 31.0674L15.124 31.2194L15.9346 30.9103L16.6458 28.5056L14.9671 29.15L13.8637 28.909L12.7184 27.0177L14.6376 20.5318L13.0583 18.8605L10.5586 27.2953L12.4726 30.4545L12.2477 32.7701L10.9351 34.4833L9.44988 34.8395L7.91238 34.0851L7.15409 32.5082L7.37374 31.4918L8.67067 29.7944L6.19708 29.7472L5.51723 30.6326L5.06226 32.7597Z" fill="#80FF7E"/>
<path d="M23.8103 39.7695L26.9167 40L29.5053 38.2659L30.3473 35.4263L29.0294 32.2515L27.0212 30.816L27.5128 30.2764L27.6488 29.4172L25.9283 27.594L25.6406 29.3753L24.8823 30.2135L22.6702 30.2607L18.0264 25.3517L15.7881 25.8861L21.8335 32.2724L25.5256 32.1939L27.4135 33.5403L28.2397 35.5364L27.8005 37.0085L26.378 37.962L24.6366 37.8363L23.8678 37.1343L23.052 35.1644L21.776 37.281L22.1996 38.313L23.8103 39.7695Z" fill="#80FF7E"/>
<path d="M39.2429 27.0125L41 24.4349L40.7908 21.3176L38.7565 19.1696L35.3521 18.7243L33.1086 19.7512L32.8837 19.0544L32.2143 18.5043L29.7773 19.091L31.1736 20.2279L31.5188 21.3072L30.4519 23.2456L23.8888 24.8225L23.2351 27.0282L31.775 24.9797L33.5531 21.7368L35.6606 20.7728L37.7995 21.0557L38.8507 22.1664L38.9657 23.8795L37.9826 25.3255L36.9942 25.6451L34.8814 25.3674L36.0738 27.5364L37.1772 27.6831L39.2429 27.0125Z" fill="#80FF7E"/>
<path d="M35.9324 7.24558L34.578 4.43222L31.7801 3.05435L28.9091 3.7459L26.8172 6.47544L26.5871 8.93254L25.8707 8.78061L25.0601 9.08972L24.3489 11.4944L26.0276 10.8553L27.1362 11.091L28.2815 12.9876L26.3623 19.4735L27.9416 21.1447L30.4361 12.7099L28.5273 9.54551L28.747 7.2351L30.0596 5.5167L31.55 5.16044L33.0823 5.9201L33.8458 7.49181L33.6262 8.51342L32.3292 10.2056L34.7976 10.2528L35.4774 9.36738L35.9324 7.24558Z" fill="#80FF7E"/>
</g>
<defs>
<clipPath id="clip0_31_33">
<rect width="41" height="40" fill="white"/>
</clipPath>
</defs>
</svg>
