<svg width="184" height="180" viewBox="0 0 184 180" fill="none" xmlns="http://www.w3.org/2000/svg">
<path fill-rule="evenodd" clip-rule="evenodd" d="M92.002 7.83936L92.9405 11.63L182.866 167.4L183.732 168.9H182H157.797H156.303H131.88H130.602H105.987H104.901H79.1011H78.0149H53.4019H52.1241H27.7027H26.2085H1.99954H0.267578L1.1335 167.4L91.0671 11.6152L92.002 7.83936ZM80.1873 166.9H103.815L92.001 24.1268L80.1873 166.9ZM105.822 166.9H129.324L94.0247 24.3303L105.822 166.9ZM89.9763 24.3422L78.1804 166.9H54.6797L89.9763 24.3422ZM29.1968 166.9L87.7987 24.8158L52.6193 166.9H29.1968ZM96.2031 24.8069L131.385 166.9H154.809L96.2031 24.8069ZM85.3336 25.5472L3.73151 166.9H27.0334L85.3336 25.5472ZM156.972 166.9L98.6877 25.5857L180.268 166.9H156.972Z" fill="#81FF7E"/>
</svg>
