<svg width="24" height="25" viewBox="0 0 24 25" fill="none" xmlns="http://www.w3.org/2000/svg">
<path d="M4.00002 22.3174C4.6026 22.5 5.41649 22.5 6.8 22.5H17.2C18.5835 22.5 19.3974 22.5 20 22.3174M4.00002 22.3174C3.87082 22.2783 3.75133 22.2308 3.63803 22.173C3.07354 21.8854 2.6146 21.4265 2.32698 20.862C2 20.2202 2 19.3802 2 17.7V7.3C2 5.61984 2 4.77976 2.32698 4.13803C2.6146 3.57354 3.07354 3.1146 3.63803 2.82698C4.27976 2.5 5.11984 2.5 6.8 2.5H17.2C18.8802 2.5 19.7202 2.5 20.362 2.82698C20.9265 3.1146 21.3854 3.57354 21.673 4.13803C22 4.77976 22 5.61984 22 7.3V17.7C22 19.3802 22 20.2202 21.673 20.862C21.3854 21.4265 20.9265 21.8854 20.362 22.173C20.2487 22.2308 20.1292 22.2783 20 22.3174M4.00002 22.3174C4.00035 21.5081 4.00521 21.0799 4.07686 20.7196C4.39249 19.1329 5.63288 17.8925 7.21964 17.5769C7.60603 17.5 8.07069 17.5 9 17.5H15C15.9293 17.5 16.394 17.5 16.7804 17.5769C18.3671 17.8925 19.6075 19.1329 19.9231 20.7196C19.9948 21.0799 19.9996 21.5081 20 22.3174M16 10C16 12.2091 14.2091 14 12 14C9.79086 14 8 12.2091 8 10C8 7.79086 9.79086 6 12 6C14.2091 6 16 7.79086 16 10Z" stroke="#81FF7E" stroke-width="2" stroke-linecap="round" stroke-linejoin="round"/>
</svg>
